<svg xmlns="http://www.w3.org/2000/svg" viewBox="0 0 1200 630" width="1200" height="630">
  <defs>
    <linearGradient id="bgGrad" x1="0%" y1="0%" x2="100%" y2="100%">
      <stop offset="0%" style="stop-color:#0a0a0f;stop-opacity:1" />
      <stop offset="100%" style="stop-color:#111118;stop-opacity:1" />
    </linearGradient>
    <linearGradient id="accentGrad" x1="0%" y1="0%" x2="100%" y2="100%">
      <stop offset="0%" style="stop-color:#6c5ce7;stop-opacity:1" />
      <stop offset="50%" style="stop-color:#a29bfe;stop-opacity:1" />
      <stop offset="100%" style="stop-color:#74b9ff;stop-opacity:1" />
    </linearGradient>
  </defs>
  <!-- Background -->
  <rect width="1200" height="630" fill="url(#bgGrad)"/>
  <!-- Accent orb -->
  <circle cx="950" cy="200" r="200" fill="#6c5ce7" opacity="0.08"/>
  <circle cx="250" cy="500" r="150" fill="#74b9ff" opacity="0.06"/>
  <!-- Grid -->
  <line x1="0" y1="0" x2="1200" y2="630" stroke="rgba(255,255,255,0.02)" stroke-width="1"/>
  <line x1="1200" y1="0" x2="0" y2="630" stroke="rgba(255,255,255,0.02)" stroke-width="1"/>
  <!-- Top accent line -->
  <rect x="0" y="0" width="1200" height="4" fill="url(#accentGrad)"/>
  <!-- Logo -->
  <text x="80" y="120" font-family="monospace" font-size="28" font-weight="bold" fill="#6c5ce7">&lt;</text>
  <text x="100" y="120" font-family="sans-serif" font-size="28" font-weight="800" fill="#f0f0f5">EA</text>
  <text x="137" y="120" font-family="monospace" font-size="28" font-weight="bold" fill="#6c5ce7"> /&gt;</text>
  <!-- Name -->
  <text x="80" y="280" font-family="Inter, sans-serif" font-size="72" font-weight="800" fill="#f0f0f5">Eric Anthony</text>
  <!-- Title -->
  <text x="80" y="350" font-family="Inter, sans-serif" font-size="36" font-weight="600" fill="#8888a0">Senior Software Engineer</text>
  <!-- Description -->
  <text x="80" y="420" font-family="Inter, sans-serif" font-size="22" fill="#5a5a72">Backend-focused · Node.js · Go · Java · Python</text>
  <!-- Tags -->
  <rect x="80" y="470" width="100" height="36" rx="18" fill="rgba(108,92,231,0.15)"/>
  <text x="105" y="494" font-family="Inter, sans-serif" font-size="14" font-weight="500" fill="#a29bfe">Fintech</text>
  <rect x="196" y="470" width="120" height="36" rx="18" fill="rgba(108,92,231,0.15)"/>
  <text x="216" y="494" font-family="Inter, sans-serif" font-size="14" font-weight="500" fill="#a29bfe">Health-tech</text>
  <rect x="332" y="470" width="130" height="36" rx="18" fill="rgba(108,92,231,0.15)"/>
  <text x="352" y="494" font-family="Inter, sans-serif" font-size="14" font-weight="500" fill="#a29bfe">E-commerce</text>
  <rect x="478" y="470" width="150" height="36" rx="18" fill="rgba(108,92,231,0.15)"/>
  <text x="498" y="494" font-family="Inter, sans-serif" font-size="14" font-weight="500" fill="#a29bfe">Microservices</text>
  <!-- Available badge -->
  <rect x="80" y="540" width="280" height="40" rx="20" fill="rgba(0,184,148,0.1)" stroke="rgba(0,184,148,0.2)" stroke-width="1"/>
  <circle cx="105" cy="560" r="5" fill="#00b894"/>
  <text x="120" y="566" font-family="Inter, sans-serif" font-size="14" font-weight="500" fill="#00b894">Based in Jakarta, Indonesia</text>
</svg>
